<svg width="current" height="current" viewBox="0 0 623 120" fill="none" xmlns="http://www.w3.org/2000/svg">
<path d="M26.88 96V62.496L27.552 67.2L0.384 28.8H14.976L35.712 58.56L31.2 58.272L49.92 28.8H63.936L37.92 68.256L39.36 61.728V96H26.88ZM98.9535 96.96C94.1535 96.96 89.7055 96.096 85.6095 94.368C81.5135 92.64 77.9295 90.24 74.8575 87.168C71.8495 84.032 69.5135 80.352 67.8495 76.128C66.1855 71.904 65.3535 67.296 65.3535 62.304C65.3535 57.312 66.1855 52.704 67.8495 48.48C69.5135 44.256 71.8495 40.608 74.8575 37.536C77.9295 34.4 81.5135 31.968 85.6095 30.24C89.7055 28.512 94.1535 27.648 98.9535 27.648C103.818 27.648 108.298 28.512 112.394 30.24C116.49 31.968 120.042 34.4 123.05 37.536C126.058 40.672 128.394 44.352 130.058 48.576C131.722 52.736 132.554 57.312 132.554 62.304C132.554 67.232 131.722 71.808 130.058 76.032C128.394 80.256 126.058 83.936 123.05 87.072C120.042 90.208 116.49 92.64 112.394 94.368C108.298 96.096 103.818 96.96 98.9535 96.96ZM98.9535 85.056C102.026 85.056 104.81 84.512 107.306 83.424C109.866 82.272 112.074 80.672 113.93 78.624C115.786 76.512 117.226 74.08 118.25 71.328C119.338 68.576 119.882 65.568 119.882 62.304C119.882 59.04 119.338 56.032 118.25 53.28C117.226 50.528 115.786 48.128 113.93 46.08C112.074 43.968 109.866 42.368 107.306 41.28C104.81 40.128 102.026 39.552 98.9535 39.552C95.9455 39.552 93.1615 40.128 90.6015 41.28C88.0415 42.368 85.8335 43.936 83.9775 45.984C82.1215 48.032 80.6815 50.432 79.6575 53.184C78.6335 55.936 78.1215 58.976 78.1215 62.304C78.1215 65.568 78.6335 68.608 79.6575 71.424C80.6815 74.176 82.1215 76.576 83.9775 78.624C85.8335 80.672 88.0415 82.272 90.6015 83.424C93.1615 84.512 95.9455 85.056 98.9535 85.056ZM172.967 96.576C167.655 96.576 162.919 95.456 158.759 93.216C154.599 90.912 151.303 87.776 148.871 83.808C146.503 79.776 145.319 75.232 145.319 70.176V28.704H157.895V69.312C157.895 72.32 158.567 75.008 159.911 77.376C161.319 79.68 163.175 81.536 165.479 82.944C167.783 84.352 170.279 85.056 172.967 85.056C175.911 85.056 178.567 84.352 180.935 82.944C183.303 81.536 185.159 79.68 186.503 77.376C187.911 75.008 188.615 72.32 188.615 69.312V28.704H200.711V70.176C200.711 75.232 199.495 79.776 197.062 83.808C194.694 87.776 191.431 90.912 187.271 93.216C183.111 95.456 178.343 96.576 172.967 96.576ZM246.505 96.96C241.641 96.96 237.193 96.128 233.161 94.464C229.129 92.8 225.641 90.432 222.697 87.36C219.753 84.224 217.449 80.544 215.785 76.32C214.185 72.032 213.385 67.36 213.385 62.304C213.385 57.44 214.249 52.928 215.977 48.768C217.705 44.608 220.105 40.96 223.177 37.824C226.249 34.688 229.833 32.256 233.929 30.528C238.025 28.8 242.473 27.936 247.273 27.936C250.537 27.936 253.705 28.416 256.777 29.376C259.849 30.336 262.665 31.68 265.225 33.408C267.785 35.072 269.929 37.024 271.657 39.264L263.689 48C262.025 46.272 260.297 44.832 258.505 43.68C256.777 42.464 254.953 41.568 253.033 40.992C251.177 40.352 249.257 40.032 247.273 40.032C244.329 40.032 241.545 40.576 238.921 41.664C236.361 42.752 234.121 44.288 232.201 46.272C230.345 48.256 228.873 50.624 227.785 53.376C226.697 56.064 226.153 59.072 226.153 62.4C226.153 65.792 226.665 68.864 227.689 71.616C228.777 74.368 230.281 76.736 232.201 78.72C234.185 80.704 236.521 82.24 239.209 83.328C241.961 84.352 244.969 84.864 248.233 84.864C250.345 84.864 252.393 84.576 254.377 84C256.361 83.424 258.185 82.624 259.849 81.6C261.577 80.512 263.145 79.264 264.553 77.856L270.697 87.744C269.161 89.472 267.113 91.04 264.553 92.448C261.993 93.856 259.113 94.976 255.913 95.808C252.777 96.576 249.641 96.96 246.505 96.96ZM326.722 96V28.8H339.202V96H326.722ZM283.618 96V28.8H296.098V96H283.618ZM288.802 68.352V56.64H332.77V68.352H288.802ZM357.305 96V28.8H401.273V40.128H369.593V84.672H401.657V96H357.305ZM363.065 67.2V56.064H396.377V67.2H363.065ZM445.817 96.96C440.953 96.96 436.505 96.128 432.473 94.464C428.441 92.8 424.953 90.432 422.009 87.36C419.065 84.224 416.761 80.544 415.097 76.32C413.497 72.032 412.697 67.36 412.697 62.304C412.697 57.44 413.561 52.928 415.289 48.768C417.017 44.608 419.417 40.96 422.489 37.824C425.561 34.688 429.145 32.256 433.241 30.528C437.337 28.8 441.785 27.936 446.585 27.936C449.849 27.936 453.017 28.416 456.089 29.376C459.161 30.336 461.977 31.68 464.537 33.408C467.097 35.072 469.241 37.024 470.969 39.264L463.001 48C461.337 46.272 459.609 44.832 457.817 43.68C456.089 42.464 454.265 41.568 452.345 40.992C450.489 40.352 448.569 40.032 446.585 40.032C443.641 40.032 440.857 40.576 438.233 41.664C435.673 42.752 433.433 44.288 431.513 46.272C429.657 48.256 428.185 50.624 427.097 53.376C426.009 56.064 425.465 59.072 425.465 62.4C425.465 65.792 425.977 68.864 427.001 71.616C428.089 74.368 429.593 76.736 431.513 78.72C433.497 80.704 435.833 82.24 438.521 83.328C441.273 84.352 444.281 84.864 447.545 84.864C449.657 84.864 451.705 84.576 453.689 84C455.673 83.424 457.497 82.624 459.161 81.6C460.889 80.512 462.457 79.264 463.865 77.856L470.009 87.744C468.473 89.472 466.425 91.04 463.865 92.448C461.305 93.856 458.425 94.976 455.225 95.808C452.089 96.576 448.953 96.96 445.817 96.96ZM492.818 75.936L490.898 63.552L525.458 28.8H541.106L492.818 75.936ZM482.93 96V28.8H495.41V96H482.93ZM526.994 96L501.554 62.112L510.386 54.528L542.162 96H526.994Z" fill="black"/>
<path d="M503.5 65.5L512.3 56.9L534.5 85.5L614.5 9L623 17L542.5 96L533.5 104.5L503.5 65.5Z" fill="#04D400"/>
</svg>


